# xmcd
#
# Track frame offsets: 
#        150
#        12955
#        33332
#        58287
#        78037
#        94385
#        118085
#        130952
#        155392
#        168270
#        189310
#        202407
#        210105
#        229215
#        245802
#        264392
#        275555
#        289622
#        304880
#        317535
#        333577
#
# Disc length: 4592 seconds
#
# Revision: 0
# Processed by: cddbd v1.5.2PL0 Copyright (c) Steve Scherf et al.
# Submitted via: ExactAudioCopy v0.99pb5
#
DISCID=3011ee15
DTITLE=Edith Piaf - Integrale et plus 15
DYEAR=1998
DGENRE=Chanson
TTITLE0=C'est la moindre des choses
TTITLE1=Monsieur Saint Pierre 
TTITLE2=Dans ma rue
TTITLE3=Elle chantait (avec La Compagnons De la Chanson)
TTITLE4=Sans y penser
TTITLE5=Johnny Fedora et Alice Blue Bonnet (inedit)
TTITLE6=Elle avait son sourire
TTITLE7=Le rideau tombe avant la fin
TTITLE8=Miss otys regrets
TTITLE9=Monsieur est parti en voyage
TTITLE10=Les toits (tu n'as pas besoin de mes reves)
TTITLE11=La mort du petit cheval (extrait du roman d'Herve Bazin)
TTITLE12=Mariage (du film "Etoile sans lumiere")
TTITLE13=C'est toi (de la comedie "La p'tite Lili")
TTITLE14=Pot pourri ("Le petit homme", "J'm'en fous pas mal", "Un refr
TTITLE14=ian courait la rue", "Qu as tu fait John_")
TTITLE15=Et portant (version inedite)
TTITLE16=Mon manege a moi (tu me fais tourner la tete)
TTITLE17=Un etranger
TTITLE18=C'est peut etre ca
TTITLE19=Le droit d'aimer (inedit en France)
TTITLE20=A quoi ca sert l'amour_ (en solo, inedit)
EXTD=
EXTT0=
EXTT1=
EXTT2=
EXTT3=
EXTT4=
EXTT5=
EXTT6=
EXTT7=
EXTT8=
EXTT9=
EXTT10=
EXTT11=
EXTT12=
EXTT13=
EXTT14=
EXTT15=
EXTT16=
EXTT17=
EXTT18=
EXTT19=
EXTT20=
PLAYORDER=
